PathFileType	4	(X/Y/Z)	Kaydara																																																																																																																																																																																																																												
DataRate	CameraRate	NumFrames	NumMarkers	Units	OrigDataRate	OrigDataStartFrame	OrigNumFrames																																																																																																																																																																																																																								
60	60	4	74	mm	60	951	201																																																																																																																																																																																																																								
Frame#	Time	N_lasi			N_rasi			N_rpsi			N_lpsi			N_fneck			N_bneck			N_fhead			N_rhead			N_lhead			N_rshld			N_relbtop			N_relbext			N_relblow			N_rwrext			N_rwrtop			N_rwrlow			N_lshld			N_lelblow			N_lelbtop			N_lwrext			N_lwrtop			N_lwrlow			N_rtopleg			N_ltopleg			N_rkneefr			N_rkneebk			N_rkneeis			N_lkneefr			N_lknssbk			N_lkneeis			N_rankfr			N_rankis			N_rankbk			N_lankfr			N_lankbk			N_lankis			D_lasi			D_rasi			D_lpsi			D_fneck			D_bneck			D_fhead			D_rhead			D_lhead			D_rshld			D_relbtop			D_relbext			D_relblow			D_rwrext			D_rwrtop			D_rwrlow			D_lshld			D_lelbext			D_lelblow			D_lelbtop			D_lwrext			D_lwrtop			D_lwrlow			D_rtopleg			D_ltopleg			D_rkneefr			D_rkneebk			D_rkneeis			D_lkneefr			D_lknssbk			D_lkneeis			D_rankfr			D_rankis			D_rankbk			D_lankfr			D_lankbk			D_lankis			D_rpsi			N_lelbext		
		X1	Y1	Z1	X2	Y2	Z2	X3	Y3	Z3	X4	Y4	Z4	X5	Y5	Z5	X6	Y6	Z6	X7	Y7	Z7	X8	Y8	Z8	X9	Y9	Z9	X10	Y10	Z10	X11	Y11	Z11	X12	Y12	Z12	X13	Y13	Z13	X14	Y14	Z14	X15	Y15	Z15	X16	Y16	Z16	X17	Y17	Z17	X18	Y18	Z18	X19	Y19	Z19	X20	Y20	Z20	X21	Y21	Z21	X22	Y22	Z22	X23	Y23	Z23	X24	Y24	Z24	X25	Y25	Z25	X26	Y26	Z26	X27	Y27	Z27	X28	Y28	Z28	X29	Y29	Z29	X30	Y30	Z30	X31	Y31	Z31	X32	Y32	Z32	X33	Y33	Z33	X34	Y34	Z34	X35	Y35	Z35	X36	Y36	Z36	X37	Y37	Z37	X38	Y38	Z38	X39	Y39	Z39	X40	Y40	Z40	X41	Y41	Z41	X42	Y42	Z42	X43	Y43	Z43	X44	Y44	Z44	X45	Y45	Z45	X46	Y46	Z46	X47	Y47	Z47	X48	Y48	Z48	X49	Y49	Z49	X50	Y50	Z50	X51	Y51	Z51	X52	Y52	Z52	X53	Y53	Z53	X54	Y54	Z54	X55	Y55	Z55	X56	Y56	Z56	X57	Y57	Z57	X58	Y58	Z58	X59	Y59	Z59	X60	Y60	Z60	X61	Y61	Z61	X62	Y62	Z62	X63	Y63	Z63	X64	Y64	Z64	X65	Y65	Z65	X66	Y66	Z66	X67	Y67	Z67	X68	Y68	Z68	X69	Y69	Z69	X70	Y70	Z70	X71	Y71	Z71	X72	Y72	Z72	X73	Y73	Z73	X74	Y74	Z74
																																																																																																																																																																																																																															
1	15.833	-528.71609	1232.40608	-54.90588	-521.50742	1253.90747	-286.35267	-246.58882	1223.50471	-347.46471	-250.20985	1210.47577	6.59295	-379.70974	1603.54218	-148.16987	-244.34166	1664.2865	-165.98734	-436.80477	1811.52725	-166.04309	-250.86901	1758.32504	-229.97713	-292.24478	1778.29727	-80.18466	-320.52616	1550.23407	-415.5373	-269.89643	1234.13208	-465.00355	-368.82912	1169.76822	-420.50323	-359.55177	1233.77777	-447.05025	-298.1101	910.32005	-471.70479	-345.14236	903.90068	-479.78127	-369.78348	918.31718	-441.13106	-275.23386	1538.61115	87.1597	-359.8484	1209.10934	101.36643	-271.48197	1201.52451	103.78491	-326.03432	887.61848	83.08858	-364.84207	883.59802	111.35609	-400.44819	898.53836	72.94798	-428.90495	1050.63408	-423.91865	-365.03387	1013.65311	47.4702	-436.47289	562.3967	-254.20389	-331.68396	579.34868	-324.31164	-372.23564	564.99985	-161.97521	-381.81694	540.41359	-95.60344	-254.55807	556.38428	-39.94441	-260.6675	547.83577	-189.37231	-299.42261	140.17722	-269.51906	-300.02048	154.37252	-189.1029	-218.43151	142.77251	-215.90612	-332.96124	193.12704	-117.04092	-259.02536	186.08925	-75.67929	-295.02536	165.08925	-159.67929	-475.8926	1035.61897	1735.02548	-435.62019	1063.0471	1451.87378	-276.86745	1131.12389	1737.93579	-421.48979	1567.51678	1603.91251	-284.09147	1596.10703	1613.83392	-473.84426	1771.17706	1606.9426	-308.09845	1735.19485	1532.45178	-319.55486	1733.41171	1688.41705	-325.8522	1597.83768	1496.89514	-446.35784	1680.49637	1239.40598	-487.60612	1688.67859	1299.14017	-392.66048	1718.64273	1292.04681	-506.80714	1953.85025	1282.32422	-455.9951	1956.84052	1307.95395	-481.48151	1938.25211	1353.26508	-324.59217	1491.28906	1834.27872	-338.04157	1193.3419	1870.46982	-292.79911	1239.17442	1937.34894	-264.73873	1170.23155	1902.22107	-472.7301	1084.03534	2037.00989	-482.79129	1122.55226	2056.58859	-508.14163	1149.89693	2022.69714	-344.48929	1007.69913	1401.35742	-332.59235	1008.60298	1801.28357	-378.3469	456.06129	1446.59531	-279.70982	492.66399	1417.74323	-284.97272	461.28983	1538.54523	-362.90543	451.41567	1765.77301	-250.41019	487.70954	1781.46988	-322.31335	444.20918	1674.59412	-325.49088	130.68887	1416.99783	-295.68081	128.03107	1481.83594	-245.25751	129.18797	1416.58661	-325.0264	135.3096	1790.70541	-252.24411	126.05533	1804.87625	-295.47136	124.11164	1731.29364	-248.08628	1150.77904	1519.7757	-365.40302	1167.68021	39.60147
2	15.85	-528.92654	1231.74004	-55.50311	-519.78771	1254.98772	-286.23068	-246.46568	1224.16733	-346.6663	-252.22044	1210.81024	7.73974	-379.01165	1604.36066	-147.68774	-243.42209	1664.47449	-165.16531	-436.00693	1811.74515	-163.87041	-249.73206	1759.46457	-227.24388	-291.33074	1777.66327	-78.35785	-320.13565	1550.84869	-414.8608	-269.85027	1234.77615	-464.78813	-368.70308	1170.55794	-420.34954	-359.33567	1234.61044	-447.08973	-298.67764	911.27319	-473.69263	-345.59177	904.86053	-481.87752	-370.38387	919.25728	-443.21281	-275.56549	1539.03854	87.59789	-361.63677	1209.78264	101.72505	-273.26874	1202.42889	106.13994	-325.40524	888.04237	90.88112	-364.91138	884.70726	118.02514	-399.51679	898.52425	78.32469	-428.48793	1052.37579	-424.51275	-363.16074	1012.9557	49.86331	-436.22341	562.6926	-255.24206	-331.5815	579.56928	-325.32372	-371.65558	565.06565	-162.98464	-380.89973	540.14004	-96.22112	-253.44437	556.30184	-41.13364	-260.1992	547.62157	-190.62777	-299.67688	140.16894	-269.7263	-299.91291	154.30363	-189.62458	-218.45505	142.72163	-216.53114	-332.57767	193.18316	-117.3821	-258.46043	186.0133	-76.54094	-294.46043	165.0133	-160.54094	-475.39776	1035.67131	1735.1239	-436.07124	1062.86888	1451.82648	-276.29463	1131.07285	1737.46887	-421.49567	1567.28577	1603.73215	-284.08876	1596.10001	1613.07144	-474.03084	1770.98236	1607.23587	-308.09473	1735.55084	1532.50046	-319.80053	1733.15353	1688.69034	-326.62334	1596.87424	1494.0062	-444.6611	1671.84219	1231.21956	-486.22643	1680.78735	1290.61783	-391.43703	1710.86426	1283.98102	-505.89123	1945.45334	1276.14059	-454.24721	1948.82721	1299.953	-477.94914	1929.35486	1345.70572	-322.29523	1492.81509	1833.19168	-340.96844	1201.06972	1882.16278	-292.85318	1247.85408	1943.53302	-268.5569	1174.66858	1914.59518	-485.1136	1120.22209	2055.16678	-489.81602	1161.21765	2072.15317	-512.40108	1188.55621	2036.87012	-345.00137	1007.62642	1401.12137	-331.6217	1008.72223	1801.16409	-378.5778	455.9132	1446.79199	-279.92077	492.57572	1417.51312	-284.79988	461.37707	1538.44986	-362.50854	451.47892	1765.70496	-250.05671	487.63206	1781.19797	-322.00989	444.15443	1674.5282	-325.59814	130.62822	1417.05673	-295.63086	128.03518	1481.83441	-245.3669	129.21066	1416.47415	-324.9041	135.37568	1790.71564	-252.19034	125.99191	1804.7937	-295.42244	124.11041	1731.31409	-248.28329	1150.74776	1519.20883	-367.2113	1168.62625	40.92149
3	15.867	-529.36737	1230.7412	-56.03815	-518.32104	1256.03294	-286.46341	-246.40385	1224.63013	-345.35736	-255.01701	1209.91806	8.68964	-378.14644	1604.50272	-147.51927	-242.96553	1663.99216	-164.29056	-434.83421	1812.05444	-161.88007	-249.29361	1759.81979	-227.06638	-290.48355	1776.98685	-76.58741	-319.78399	1551.06979	-414.28936	-269.90469	1235.07912	-464.64622	-368.72353	1170.92529	-420.11894	-359.31202	1234.93935	-446.90193	-298.92645	911.98044	-475.74287	-345.77473	905.41	-483.98682	-370.70278	919.75319	-445.45395	-276.50381	1538.77243	88.38587	-363.3474	1209.23767	102.06306	-274.88852	1202.55287	107.66729	-323.6982	887.96135	96.18742	-363.83434	884.76242	122.58475	-397.71996	897.51534	81.82745	-427.74117	1053.56583	-425.23182	-363.42381	1011.4875	50.86742	-435.2861	562.70008	-255.88146	-330.66048	579.63295	-326.06514	-370.80357	565.0993	-163.44746	-379.76845	539.88899	-96.67151	-251.98912	556.30379	-41.97777	-259.29775	547.55058	-191.43019	-299.60102	140.3121	-269.56833	-299.64649	154.32757	-189.91478	-218.24226	142.57428	-216.94893	-332.21722	193.24635	-117.34248	-257.86911	185.98232	-76.96096	-293.86911	164.98232	-160.96096	-475.04662	1035.69435	1735.13199	-436.46507	1062.67883	1451.7482	-275.79508	1131.12572	1736.98944	-421.27914	1567.07703	1603.59039	-284.06841	1596.05865	1612.50504	-474.19743	1770.81207	1607.66327	-308.40048	1735.99396	1534.15924	-319.95174	1732.85263	1689.05533	-327.40685	1596.12915	1491.46286	-442.95757	1662.85477	1223.46191	-484.76185	1672.66357	1282.46429	-390.00111	1702.50839	1276.00365	-504.81876	1936.59897	1269.62097	-452.39365	1940.34058	1291.80511	-474.01573	1920.58945	1338.13934	-320.74715	1494.2453	1832.28485	-345.43785	1210.48996	1894.53491	-292.87094	1257.86926	1951.59393	-273.47555	1180.86746	1928.24387	-494.61658	1159.5784	2072.92282	-493.38982	1201.95007	2087.46368	-514.34113	1228.79593	2049.09027	-345.54699	1007.63313	1400.7309	-331.07765	1008.83652	1801.07056	-378.71025	455.82314	1446.81305	-280.07343	492.56523	1417.32132	-284.85281	461.32965	1538.09708	-362.10545	451.4669	1765.5983	-249.56118	487.58034	1780.95917	-321.74164	444.13906	1674.46182	-325.66055	130.61482	1417.09198	-295.62021	128.0501	1481.8277	-245.43589	129.16346	1416.42532	-324.73858	135.45633	1790.76111	-252.11555	125.95541	1804.7049	-295.37159	124.09731	1731.33728	-248.4553	1150.75134	1518.72391	-368.89725	1168.57285	41.81738
4	15.883	-529.69967	1229.53278	-56.37356	-517.80762	1256.75797	-286.95204	-246.17929	1224.83566	-344.18419	-256.32599	1209.05762	10.03423	-378.32176	1604.80469	-146.81982	-242.68091	1663.13919	-163.41646	-433.49606	1812.3848	-160.16739	-248.18012	1759.81461	-225.15171	-289.20349	1776.4006	-75.13283	-319.44435	1550.94009	-413.5107	-269.93052	1235.00938	-464.56345	-368.70853	1170.93376	-419.82662	-359.24599	1234.92348	-446.53164	-298.7396	912.34787	-477.14344	-345.62912	905.62241	-485.64419	-370.64186	919.82063	-447.08569	-277.66342	1537.97714	89.4109	-364.68472	1208.14964	101.75543	-276.1677	1201.76048	108.33943	-321.41666	887.42302	99.11246	-361.99512	884.33586	124.86403	-395.44529	895.96558	83.21948	-426.55518	1053.87886	-425.63404	-364.45126	1009.65096	50.36226	-433.90591	562.48234	-256.15252	-329.16149	579.56219	-326.23428	-369.56352	564.84924	-163.66156	-378.73055	539.56696	-97.00095	-250.82521	556.24943	-42.11839	-257.99631	547.39292	-191.57322	-299.03767	139.87174	-270.11526	-299.32207	154.35369	-189.85718	-218.03656	142.21834	-216.85732	-331.86409	193.31007	-117.28469	-257.4752	185.92369	-76.89373	-293.4752	164.92369	-160.89373	-474.6637	1035.80399	1735.08743	-436.66584	1062.39655	1451.57135	-275.47188	1131.22871	1736.61682	-421.2846	1566.86081	1603.56293	-284.11385	1596.01105	1611.65436	-474.29398	1770.68146	1608.00598	-308.40559	1736.30753	1534.21616	-319.99945	1732.59796	1689.28345	-328.35274	1594.96704	1488.75702	-441.16886	1653.31146	1215.99426	-482.97096	1664.16382	1274.65683	-388.24413	1693.85712	1268.30154	-503.62114	1927.46338	1262.54997	-450.61066	1931.70349	1283.11111	-471.38134	1911.47934	1330.1059	-320.4586	1495.87234	1831.73508	-348.76041	1220.364	1907.36084	-293.85668	1268.78685	1960.06302	-279.52877	1188.86826	1942.6503	-502.40723	1200.48279	2088.39157	-496.95827	1243.86871	2098.51624	-514.56512	1269.28551	2059.22455	-345.88852	1007.59422	1400.57068	-330.74364	1008.88313	1800.86716	-378.74924	455.77946	1446.80939	-280.17668	492.52716	1417.17163	-284.73125	461.30718	1537.92709	-361.73397	451.62849	1765.5101	-249.40432	487.31197	1780.22003	-321.40781	444.13074	1674.23752	-325.6739	130.59283	1417.09564	-295.56803	128.02281	1481.7981	-245.46288	129.16396	1416.3826	-324.73766	135.58737	1790.77072	-252.01183	125.9334	1804.56665	-295.33371	124.12009	1731.31485	-248.54586	1150.74509	1518.28094	-370.22625	1167.78984	41.96283
